PathFileType	4	(X/Y/Z)	E:\3-PhD\Data\MocapData\ElaboratedData\015\pre\dynamicElaborations\RunA1\RunA1.trc
DataRate	CameraRate	NumFrames	NumMarkers	Units	OrigDataRate	DataStartFrame
200	200	4	61	mm	200	363
Frame#	Time	FHD			LBHD			RBHD			C7			T10			CLAV			LSHO			LUUPA			LMUPA			LDUPA			LLEP			LMEP			LRAD			LUL			LRFIN			RSHO			RUPA1			RMUPA			RDUPA			RLEP			RMEP			RRAD			RUL			RUFIN			LASI			RASI			USACR			LSACR			RSACR			LTHI1			LTHI2			LTHI3			LTHI4			LLFC			LMFC			LTIB1			LTIB2			LTIB3			LTIB4			LLMAL			LMMAL			LHEE			LMT1			LMT5			LMT2			RTHI			RTHI2			RTHI3			RTHI4			RLFC			RMFC			RTIB1			RTIB2			RTIB3			RTIB4			RLMAL			RMMAL			RHEE			RMT1			RMT2			RMT5		
		X1	Y1	Z1	X2	Y2	Z2	X3	Y3	Z3	X4	Y4	Z4	X5	Y5	Z5	X6	Y6	Z6	X7	Y7	Z7	X8	Y8	Z8	X9	Y9	Z9	X10	Y10	Z10	X11	Y11	Z11	X12	Y12	Z12	X13	Y13	Z13	X14	Y14	Z14	X15	Y15	Z15	X16	Y16	Z16	X17	Y17	Z17	X18	Y18	Z18	X19	Y19	Z19	X20	Y20	Z20	X21	Y21	Z21	X22	Y22	Z22	X23	Y23	Z23	X24	Y24	Z24	X25	Y25	Z25	X26	Y26	Z26	X27	Y27	Z27	X28	Y28	Z28	X29	Y29	Z29	X30	Y30	Z30	X31	Y31	Z31	X32	Y32	Z32	X33	Y33	Z33	X34	Y34	Z34	X35	Y35	Z35	X36	Y36	Z36	X37	Y37	Z37	X38	Y38	Z38	X39	Y39	Z39	X40	Y40	Z40	X41	Y41	Z41	X42	Y42	Z42	X43	Y43	Z43	X44	Y44	Z44	X45	Y45	Z45	X46	Y46	Z46	X47	Y47	Z47	X48	Y48	Z48	X49	Y49	Z49	X50	Y50	Z50	X51	Y51	Z51	X52	Y52	Z52	X53	Y53	Z53	X54	Y54	Z54	X55	Y55	Z55	X56	Y56	Z56	X57	Y57	Z57	X58	Y58	Z58	X59	Y59	Z59	X60	Y60	Z60	X61	Y61	Z61	

375	1.870000	-3133.452383	1498.476674	151.843749	-3263.649056	1559.036988	148.846583	-3266.614312	1558.681156	275.879613	-3399.465683	1472.180868	234.556097	-3592.297975	1198.414617	250.422566	-3313.810312	1340.406844	192.895944	-3358.997629	1444.363988	30.217269	-3506.294559	1340.733851	-65.100392	-3508.181183	1292.595276	-60.929209	-3558.585057	1302.830290	-89.087404	-3636.936324	1275.705650	-101.830751	-3658.378008	1261.695315	-6.672250	-3571.497127	1011.632148	-66.223291	-3517.934137	1046.523404	-31.059543	-3467.461063	970.445267	-41.406920	-3323.071628	1404.192162	387.181166	-3366.442984	1253.624035	492.692785	-3347.167465	1213.281318	475.945297	-3379.472329	1189.881214	520.899252	-3396.472982	1081.133097	533.478899	-3476.060832	1084.005336	494.257067	-3276.633151	1003.412274	312.923528	-3264.997673	934.259360	342.435457	-3199.200116	992.252586	288.370990	-3520.119489	1005.592699	102.018576	-3492.987912	976.657985	340.895201	-3651.485630	1102.458856	248.782760	-3672.103723	1073.421685	223.870399	-3661.174730	1073.000924	278.246629	-3478.948010	741.573392	33.803550	-3405.122176	698.413265	29.978454	-3364.668873	726.962346	29.585821	-3390.890496	644.054872	54.967100	-3350.401821	572.876580	67.685663	-3347.550869	578.274201	186.037482	-3303.750203	415.975387	109.495428	-3352.975752	372.156696	51.322281	-3321.675773	369.389054	82.551500	-3337.361368	290.907297	115.702146	-3412.965393	167.273185	99.442968	-3401.035315	181.579031	184.679375	-3484.258674	111.784876	149.815812	-3273.022256	133.923744	176.088856	-3301.351849	88.310072	77.452143	-3269.891984	130.785150	126.748598	-3560.628184	780.403837	399.460001	-3539.587847	721.814629	385.275990	-3510.922019	719.186289	364.617518	-3586.752991	649.411999	382.425599	-3706.716746	496.902355	350.678486	-3701.395879	488.038934	225.351931	-3889.109739	396.133520	300.504616	-3978.287742	449.452765	341.659799	-3971.612406	406.188775	325.606736	-4017.009478	388.729404	289.370196	-4099.944862	418.789531	318.646437	-4084.105714	425.761575	235.905254	-4141.214341	505.080085	276.189309	-4157.421640	287.148355	222.914461	-4161.718393	285.475374	265.502853	-4197.645046	320.775559	317.451005	
376	1.875000	-3106.898981	1496.427576	151.334204	-3236.799032	1557.588760	147.847768	-3240.117480	1557.371215	274.938834	-3373.042407	1471.857177	232.474787	-3568.093397	1200.126936	249.542538	-3288.579522	1339.082740	192.426366	-3333.329923	1440.659740	27.955309	-3478.116095	1330.330668	-66.801726	-3478.496201	1282.396871	-61.073117	-3528.852864	1289.919777	-90.218913	-3605.991358	1259.815402	-102.948284	-3628.231408	1248.085339	-7.523148	-3531.046862	1000.624932	-59.264105	-3479.515921	1038.380471	-24.077641	-3426.024335	964.384280	-31.625960	-3298.537859	1403.046416	386.602993	-3346.724270	1255.527149	494.294221	-3328.369561	1214.326544	478.393137	-3361.608246	1192.705246	523.649747	-3381.204797	1084.600113	538.867175	-3459.412456	1088.435164	497.823059	-3259.235291	990.803300	325.544459	-3250.965700	922.814272	359.047945	-3181.254621	975.245151	304.340571	-3495.938090	1006.940978	101.362979	-3467.987379	978.877414	340.544555	-3627.563099	1102.719724	248.744880	-3648.194911	1073.576615	223.970412	-3637.086011	1073.297329	278.266484	-3459.865723	738.709566	32.983131	-3387.275449	693.702104	28.326637	-3345.923845	720.981955	27.638252	-3373.969163	639.037686	53.195496	-3334.316858	566.343477	65.654112	-3329.363333	571.765875	184.917389	-3287.850670	409.455659	107.186990	-3338.138856	365.553644	50.075392	-3306.212239	362.794653	80.614998	-3321.637389	284.453954	114.235448	-3397.861173	160.886211	98.870990	-3384.803584	175.706877	183.852422	-3469.195545	107.122499	150.278249	-3257.760058	125.476312	174.680919	-3287.559457	79.272459	76.777789	-3255.025187	121.783206	125.468636	-3529.848768	780.918790	399.580456	-3506.576414	723.014750	385.237067	-3478.284400	721.436146	363.934895	-3550.776003	648.982982	383.067791	-3664.760891	494.127489	351.082491	-3660.019096	485.484523	225.518670	-3849.381945	400.736552	300.431189	-3936.592252	457.079114	341.750182	-3931.236782	413.888508	325.715451	-3977.599907	397.975574	289.157365	-4058.896345	431.453518	318.829151	-4042.886572	437.796145	235.957740	-4097.531232	518.962615	276.203000	-4120.165089	301.195156	223.528469	-4124.537058	299.701033	266.045462	-4159.594244	336.191391	317.804755	
377	1.880000	-3080.449553	1494.195221	151.018329	-3210.070101	1555.906815	146.965252	-3213.807012	1555.842200	274.112260	-3346.865185	1471.209328	230.366495	-3543.820854	1201.330103	248.444105	-3263.411510	1337.428250	192.069794	-3307.695285	1436.637812	25.836520	-3449.392749	1319.433099	-68.290485	-3448.316434	1271.787325	-60.872264	-3498.459506	1276.598341	-91.070957	-3574.234852	1243.482562	-103.783978	-3597.482141	1233.984374	-8.240076	-3489.651482	989.898007	-52.060236	-3440.357742	1030.521650	-16.919674	-3383.832571	958.922983	-21.710015	-3274.252297	1401.690591	386.164111	-3327.091468	1257.303975	495.817301	-3309.663004	1215.271004	480.769220	-3343.802419	1195.447862	526.295942	-3366.139575	1088.232436	544.244485	-3442.816471	1092.716138	501.288493	-3242.597232	978.937969	339.034363	-3237.462044	912.543437	376.487821	-3164.357341	959.376349	321.229259	-3471.730342	1007.951140	100.560504	-3443.029823	980.794336	340.052339	-3603.617863	1102.489224	248.677678	-3624.232244	1073.227321	224.057590	-3612.990244	1073.113217	278.315507	-3441.096709	735.594415	32.133552	-3369.768472	688.789536	26.752426	-3327.621885	714.840533	25.884087	-3357.427918	633.833964	51.473810	-3318.598485	559.820511	63.712553	-3311.629216	565.333445	183.887723	-3273.002655	402.727255	105.118691	-3324.335941	359.072199	48.858266	-3291.876633	356.106176	78.768478	-3307.492426	277.931822	112.690549	-3384.803457	154.556717	98.078818	-3370.625923	169.806080	182.897314	-3456.421041	102.855833	150.431650	-3244.756940	116.475198	173.080390	-3276.161994	70.160260	75.782793	-3242.424640	112.348019	124.026573	-3498.855698	781.397490	399.644464	-3473.256262	724.288609	385.214003	-3445.399592	723.791032	363.242653	-3514.373478	648.711227	383.779117	-3622.072445	491.710331	351.560872	-3617.862220	483.141960	225.688948	-3808.407416	405.086601	300.443189	-3893.715414	464.097347	341.779002	-3889.608367	420.963376	325.689167	-3936.738335	406.568888	289.037699	-4016.413690	443.130503	319.003677	-4000.245695	448.761339	236.010979	-4052.969874	531.488683	276.020511	-4080.610746	313.801042	224.558433	-4085.030990	312.570918	267.018570	-4119.369175	350.098458	318.527789	
378	1.885000	-3054.125670	1491.828916	150.897574	-3183.490195	1554.023604	146.198607	-3187.716647	1554.128110	273.395155	-3320.964194	1470.239999	228.239279	-3519.473220	1201.995412	247.155155	-3238.291864	1335.467151	191.833372	-3282.100369	1432.349461	23.884840	-3420.071749	1308.134887	-69.491289	-3417.599601	1260.860194	-60.278487	-3467.351720	1262.982663	-91.594810	-3541.610367	1226.823907	-104.294697	-3566.085162	1219.443997	-8.798322	-3447.348231	979.582112	-44.643335	-3400.498610	1023.044284	-9.613939	-3340.969241	954.150357	-11.708168	-3250.212877	1400.165962	385.874700	-3307.534230	1258.980853	497.290453	-3291.010469	1216.149260	483.124033	-3326.030385	1198.130962	528.866221	-3351.234918	1092.076137	549.618875	-3426.266804	1096.883540	504.705418	-3226.692154	968.024032	353.284798	-3224.460261	903.618164	394.596623	-3148.468701	944.851787	338.865729	-3447.492026	1008.574760	99.597517	-3418.109629	982.388145	339.415554	-3579.627609	1101.790599	248.569032	-3600.181427	1072.397156	224.113107	-3588.862695	1072.469960	278.379068	-3422.660957	732.215873	31.266943	-3352.617719	683.656499	25.278469	-3309.789138	708.536752	24.334368	-3341.306061	628.416811	49.807048	-3303.296470	553.267828	61.877671	-3294.453265	558.917903	182.935759	-3259.213116	395.730942	103.300018	-3311.541954	352.673919	47.661998	-3278.665789	349.275738	77.013885	-3294.890399	271.277542	111.066861	-3373.666317	148.174507	97.082809	-3358.460113	163.815731	181.869713	-3445.786722	98.813717	150.267100	-3233.904401	107.148850	171.373418	-3266.933548	61.167447	74.496019	-3231.952572	102.704605	122.498709	-3467.704276	781.841707	399.677955	-3439.689000	725.661348	385.244661	-3412.320530	726.266982	362.600634	-3477.594407	648.628246	384.574343	-3578.668498	489.653559	352.106151	-3574.882685	481.014976	225.858379	-3766.251871	409.155149	300.518578	-3849.760945	470.464709	341.752409	-3846.821434	427.380979	325.542812	-3894.544077	414.460301	289.011366	-3972.630420	453.738674	319.175245	-3956.363552	458.639121	236.079378	-4007.742170	542.633963	275.727645	-4038.917473	324.902977	225.932041	-4043.329395	323.986516	268.364307	-4077.083647	362.376033	319.613947	
